<?xml version="1.0" standalone="no"?><!DOCTYPE svg PUBLIC "-//W3C//DTD SVG 1.1//EN" "http://www.w3.org/Graphics/SVG/1.1/DTD/svg11.dtd"><svg t="1765852246865" class="icon" viewBox="0 0 1024 1024" version="1.1" xmlns="http://www.w3.org/2000/svg" p-id="6082" xmlns:xlink="http://www.w3.org/1999/xlink" width="200" height="200"><path d="M431.48 138.89L70.02 430.87c-15.74 12.71-6.75 38.15 13.48 38.15h72.22v368.33c0 35.18 28.52 63.7 63.7 63.7h537.27c35.18 0 63.7-28.52 63.7-63.7V469.02h69.56c20.52 0 29.33-26.04 13.04-38.5l-382.83-292.8c-26.31-20.11-62.94-19.63-88.68 1.17z" fill="#39E2A0" p-id="6083"></path><path d="M440.28 812.37h-70.06c-9.97 0-18.06-8.09-18.06-18.06V653.46c0-9.97 8.09-18.06 18.06-18.06h70.06c9.97 0 18.06 8.09 18.06 18.06V794.3c0 9.98-8.09 18.07-18.06 18.07zM575.96 812.37h-58.27c-13.23 0-23.96-10.73-23.96-23.96V588.57c0-13.23 10.73-23.96 23.96-23.96h58.27c13.23 0 23.96 10.73 23.96 23.96v199.84c-0.01 13.23-10.73 23.96-23.96 23.96z" fill="#FFFFFF" p-id="6084"></path><path d="M228.97 670.8h34.02c10.15 0 18.38 8.23 18.38 18.38v104.81c0 10.15-8.23 18.38-18.38 18.38h-34.02c-10.15 0-18.38-8.23-18.38-18.38V689.18c0-10.15 8.23-18.38 18.38-18.38zM228.97 493.83h34.02c10.15 0 18.38 8.23 18.38 18.38v104.81c0 10.15-8.23 18.38-18.38 18.38h-34.02c-10.15 0-18.38-8.23-18.38-18.38V512.21c0-10.15 8.23-18.38 18.38-18.38z" fill="#12926E" p-id="6085"></path><path d="M874.04 646.63H766.81c-12.27 0-23.61 6.55-29.74 17.17l-53.61 92.86a34.312 34.312 0 0 0 0 34.34l53.61 92.86a34.323 34.323 0 0 0 29.74 17.17h107.23c12.27 0 23.61-6.55 29.74-17.17L957.39 791a34.312 34.312 0 0 0 0-34.34l-53.61-92.86a34.344 34.344 0 0 0-29.74-17.17z" fill="#8989A3" p-id="6086"></path><path d="M820.43 773.84m-42.84 0a42.84 42.84 0 1 0 85.68 0 42.84 42.84 0 1 0-85.68 0Z" fill="#FFFFFF" p-id="6087"></path></svg>